<svg aria-hidden="true" style="width:0;height:0;position:absolute;overflow:hidden" xmlns="http://www.w3.org/2000/svg"><defs><symbol id="icon-close" viewBox="0 0 32 32"><path d="M32 3.223 28.777 0 16 12.777 3.223 0 0 3.223 12.777 16 0 28.777 3.223 32 16 19.223 28.777 32 32 28.777 19.223 16 32 3.223z"/></symbol><symbol id="icon-play" viewBox="0 0 32 32"><path d="M16 0C7.163 0 0 7.163 0 16s7.163 16 16 16 16-7.163 16-16S24.837 0 16 0zm0 29C8.82 29 3 23.18 3 16S8.82 3 16 3s13 5.82 13 13-5.82 13-13 13zM12 9l12 7-12 7z"/></symbol><symbol id="icon-up" viewBox="0 0 32 32"><path d="M21 28H11a1 1 0 0 1-1-1V16H6a1.002 1.002 0 0 1-.707-1.707l10-10a1 1 0 0 1 1.414 0l10 10A1 1 0 0 1 26 16h-4v11a1 1 0 0 1-1 1zm-9-2h8V15a1 1 0 0 1 1-1h2.586L16 6.414 8.414 14H11a1 1 0 0 1 1 1v11z"/></symbol></defs></svg>